<?xml version="1.0" encoding="UTF-8"?>
<svg version="1.1" xmlns="http://www.w3.org/2000/svg" width="681" height="286">
<path d="M0 0 C224.73 0 449.46 0 681 0 C681 94.38 681 188.76 681 286 C456.27 286 231.54 286 0 286 C0 191.62 0 97.24 0 0 Z " fill="#FDFDFD" transform="translate(0,0)"/>
<path d="M0 0 C77.55 0 155.1 0 235 0 C235 2.64 235 5.28 235 8 C159.76 8 84.52 8 7 8 C7 72.68 7 137.36 7 204 C212.59 204 418.18 204 630 204 C630 139.32 630 74.64 630 8 C554.43 8 478.86 8 401 8 C401 5.36 401 2.72 401 0 C478.88 0 556.76 0 637 0 C637 69.96 637 139.92 637 212 C426.79 212 216.58 212 0 212 C0 142.04 0 72.08 0 0 Z " fill="#0A0A0A" transform="translate(23,50)"/>
<path d="M0 0 C77.55 0 155.1 0 235 0 C235 2.64 235 5.28 235 8 C159.76 8 84.52 8 7 8 C7 72.68 7 137.36 7 204 C212.59 204 418.18 204 630 204 C630 204.33 630 204.66 630 205 C444.54 205 259.08 205 68 205 C67.34 206.32 66.68 207.64 66 209 C65.67 209.33 65.34 209.66 65 210 C348.14 210.495 348.14 210.495 637 211 C637 211.33 637 211.66 637 212 C426.79 212 216.58 212 0 212 C0 142.04 0 72.08 0 0 Z " fill="#222222" transform="translate(23,50)"/>
<path d="M0 0 C1.50787483 -0.02846675 3.01659052 -0.02361179 4.52442527 0.00690401 C5.3597205 -0.00001906 6.19501573 -0.00694213 7.05562294 -0.01407498 C9.8737023 -0.03004323 12.68975255 -0.00297416 15.50772834 0.02366388 C17.54058725 0.021049 19.57344421 0.01579842 21.60629034 0.00812888 C27.20708446 -0.00532961 32.80719419 0.01877001 38.40790105 0.04879725 C44.44197052 0.07463991 50.47599949 0.06594462 56.51010871 0.06138361 C66.96942879 0.05823317 77.4285505 0.07689442 87.88780189 0.11081064 C98.85906003 0.14629606 109.83022884 0.16940289 120.80154395 0.17592752 C121.48335161 0.17633996 122.16515927 0.1767524 122.86762776 0.17717733 C126.33009394 0.17920729 129.7925602 0.18101561 133.25502655 0.18273859 C157.78851973 0.1953457 182.32189616 0.23578273 206.85532355 0.29255426 C230.69125473 0.34764814 254.52715397 0.39015602 278.36313605 0.41560113 C279.46496016 0.41678487 279.46496016 0.41678487 280.58904334 0.41799252 C287.96559738 0.42590354 295.34215168 0.43355844 302.71870619 0.44102567 C317.74599751 0.45624352 332.77328674 0.47317103 347.80057502 0.49113214 C348.49152641 0.49195588 349.1824778 0.49277962 349.89436711 0.49362832 C396.04579013 0.54884521 442.19714481 0.64404258 488.34848762 0.74519098 C484.47089018 6.52329181 484.47089018 6.52329181 479.57918876 7.49038196 C478.07476471 7.51875124 476.56949959 7.51409015 475.0651195 7.48347795 C474.2303588 7.49040102 473.3955981 7.49732408 472.53554162 7.50445694 C469.72529712 7.52039802 466.91709622 7.49337858 464.10695624 7.46671808 C462.07735907 7.46933351 460.04776385 7.47458512 458.01817948 7.48225307 C452.43104527 7.49570065 446.84459817 7.47162684 441.25755155 7.44158471 C435.23645152 7.41572643 429.2153917 7.42443845 423.19425178 7.42899835 C412.75896471 7.43214779 402.32386262 7.41349706 391.88863921 7.37957132 C380.94332733 7.34407839 369.99810505 7.32097754 359.05273604 7.31445444 C358.37238347 7.314042 357.6920309 7.31362956 356.99106159 7.31320462 C353.53594441 7.31117465 350.08082715 7.30936634 346.62570981 7.30764337 C322.14823164 7.29503833 297.67087054 7.25460709 273.19345832 7.1978277 C249.4128657 7.14272833 225.6323051 7.10022314 201.85166144 7.07478082 C200.75227571 7.07359709 200.75227571 7.07359709 199.63068017 7.07238944 C192.27040914 7.06447837 184.91013786 7.05682348 177.54986637 7.04935628 C162.55592465 7.03413869 147.56198501 7.01721118 132.56804633 6.99924982 C131.87863772 6.99842608 131.18922911 6.99760234 130.47892933 6.99675363 C84.4353992 6.94154251 38.39193729 6.84634576 -7.65151238 6.74519098 C-5.55312083 2.5824425 -4.68390271 0.95587846 0 0 Z " fill="#010101" transform="translate(94.65151238441467,254.25480902194977)"/>
<path d="M0 0 C23.13445378 0 23.13445378 0 31.4921875 7.20703125 C35.91137841 12.46197588 36.49792091 17.29461313 36.4375 23.875 C36.4674707 25.02162109 36.4674707 25.02162109 36.49804688 26.19140625 C36.4919884 33.32829167 34.2135715 38.44587903 29.5625 43.8125 C20.23262514 51.77702732 13.04946568 50 0 50 C0 33.5 0 17 0 0 Z " fill="#F2F2F2" transform="translate(326,133)"/>
<path d="M0 0 C1.27423828 -0.00193359 1.27423828 -0.00193359 2.57421875 -0.00390625 C3.91419922 0.00189453 3.91419922 0.00189453 5.28125 0.0078125 C6.17457031 0.00394531 7.06789063 0.00007812 7.98828125 -0.00390625 C8.83777344 -0.00261719 9.68726563 -0.00132813 10.5625 0 C11.34689453 0.00112793 12.13128906 0.00225586 12.93945312 0.00341797 C14.78125 0.1328125 14.78125 0.1328125 15.78125 1.1328125 C16.14885731 3.46099214 16.48366581 5.794651 16.78125 8.1328125 C19.12658951 8.90237386 19.12658951 8.90237386 21.78125 9.1328125 C22.27625 8.6378125 22.77125 8.1428125 23.28125 7.6328125 C23.77625 7.1378125 24.27125 6.6428125 24.78125 6.1328125 C29.36332166 6.39821358 31.46142473 8.29756869 34.59375 11.5078125 C35.38394531 12.29929687 36.17414063 13.09078125 36.98828125 13.90625 C38.78125 16.1328125 38.78125 16.1328125 38.78125 19.1328125 C37.015625 19.81640625 37.015625 19.81640625 34.78125 20.1328125 C32.859375 18.91796875 32.859375 18.91796875 31.03125 17.1953125 C30.41765625 16.62941406 29.8040625 16.06351563 29.171875 15.48046875 C28.48351562 14.81337891 28.48351562 14.81337891 27.78125 14.1328125 C27.19085938 14.46667969 26.60046875 14.80054688 25.9921875 15.14453125 C22.6538045 16.63677665 20.2974069 15.92091663 16.78125 15.1328125 C13.34375 13.5703125 13.34375 13.5703125 10.78125 12.1328125 C10.78125 10.1528125 10.78125 8.1728125 10.78125 6.1328125 C7.15125 6.1328125 3.52125 6.1328125 -0.21875 6.1328125 C-0.21875 7.7828125 -0.21875 9.4328125 -0.21875 11.1328125 C-2.79251604 13.70657854 -5.74234507 15.11532813 -9.21875 16.1328125 C-11.78125 15.7578125 -11.78125 15.7578125 -14.21875 15.1328125 C-18.17048357 14.73051739 -18.17048357 14.73051739 -20.53125 16.8828125 C-22.46338044 18.93394493 -22.46338044 18.93394493 -22.03125 21.1328125 C-21.763125 21.7928125 -21.495 22.4528125 -21.21875 23.1328125 C-20.46875 25.1328125 -20.46875 25.1328125 -20.21875 27.1328125 C-21.53125 29.0703125 -21.53125 29.0703125 -23.21875 31.1328125 C-23.91188908 32.78864475 -24.58349424 34.45392229 -25.21875 36.1328125 C-25.71375 36.6278125 -25.71375 36.6278125 -26.21875 37.1328125 C-27.86875 37.1328125 -29.51875 37.1328125 -31.21875 37.1328125 C-31.21875 40.7628125 -31.21875 44.3928125 -31.21875 48.1328125 C-29.23875 48.1328125 -27.25875 48.1328125 -25.21875 48.1328125 C-20.57384475 56.48949471 -20.57384475 56.48949471 -21.21875 61.1328125 C-21.486875 61.7928125 -21.755 62.4528125 -22.03125 63.1328125 C-22.46181155 65.42383275 -22.46181155 65.42383275 -20.28125 67.9453125 C-17.32974425 70.5712368 -17.32974425 70.5712368 -13.46875 69.6953125 C-12.45554687 69.48261719 -12.45554687 69.48261719 -11.421875 69.265625 C-7.28060157 69.01597376 -3.78312957 71.21035778 -0.21875 73.1328125 C-0.21875 74.7828125 -0.21875 76.4328125 -0.21875 78.1328125 C3.41125 78.1328125 7.04125 78.1328125 10.78125 78.1328125 C10.78125 76.4828125 10.78125 74.8328125 10.78125 73.1328125 C13.96643182 69.94763068 17.47493476 69.21119141 21.90625 68.9453125 C24.78125 69.1328125 24.78125 69.1328125 26.84375 69.9453125 C27.8028125 70.038125 27.8028125 70.038125 28.78125 70.1328125 C29.585625 69.3078125 30.39 68.4828125 31.21875 67.6328125 C32.064375 66.8078125 32.91 65.9828125 33.78125 65.1328125 C36.59375 65.3203125 36.59375 65.3203125 38.78125 66.1328125 C38.24537899 70.08932679 36.43718209 71.81361572 33.53125 74.4453125 C32.76296875 75.16332031 31.9946875 75.88132812 31.203125 76.62109375 C28.78125 78.1328125 28.78125 78.1328125 26.15234375 77.8984375 C25.36988281 77.64578125 24.58742188 77.393125 23.78125 77.1328125 C20.30687221 76.38270356 20.30687221 76.38270356 16.78125 76.1328125 C16.78125 78.4428125 16.78125 80.7528125 16.78125 83.1328125 C14.43272472 84.30707514 13.04350935 84.24789423 10.4296875 84.23046875 C9.15351563 84.22563477 9.15351563 84.22563477 7.8515625 84.22070312 C6.96210938 84.21232422 6.07265625 84.20394531 5.15625 84.1953125 C4.2590625 84.19080078 3.361875 84.18628906 2.4375 84.18164062 C0.21868352 84.16983841 -2.00000018 84.15337405 -4.21875 84.1328125 C-4.87875 81.8228125 -5.53875 79.5128125 -6.21875 77.1328125 C-9.11948181 76.45480216 -9.11948181 76.45480216 -12.21875 76.1328125 C-13.20875 77.1228125 -13.20875 77.1228125 -14.21875 78.1328125 C-17.75320965 78.03680001 -19.12921147 77.21013513 -21.82421875 74.8828125 C-22.67628906 73.9753125 -23.52835937 73.0678125 -24.40625 72.1328125 C-27.47862953 68.68778544 -27.47862953 68.68778544 -31.21875 66.1328125 C-30.46875 61.3828125 -30.46875 61.3828125 -28.21875 59.1328125 C-28.21875 57.8128125 -28.21875 56.4928125 -28.21875 55.1328125 C-30.85875 54.4728125 -33.49875 53.8128125 -36.21875 53.1328125 C-36.21875 46.2028125 -36.21875 39.2728125 -36.21875 32.1328125 C-33.90875 31.4728125 -31.59875 30.8128125 -29.21875 30.1328125 C-28.88875 28.4828125 -28.55875 26.8328125 -28.21875 25.1328125 C-29.20875 24.4728125 -30.19875 23.8128125 -31.21875 23.1328125 C-30.87348319 17.82556842 -28.01146144 15.29066432 -24.40625 11.7578125 C-23.87193359 11.19964844 -23.33761719 10.64148437 -22.78710938 10.06640625 C-21.19921875 8.484375 -21.19921875 8.484375 -18.21875 6.1328125 C-15.83621304 6.46020989 -14.26975928 7.10498925 -12.15625 8.2578125 C-10.07455281 9.46178351 -10.07455281 9.46178351 -7.21875 8.1328125 C-6.47615651 5.82252165 -5.807312 3.4870605 -5.21875 1.1328125 C-3.66268249 -0.42325501 -2.15917629 0.00310481 0 0 Z " fill="#4D3370" transform="translate(338.21875,8.8671875)"/>
<path d="M0 0 C2.64 0 5.28 0 8 0 C8.34256836 1.00264893 8.68513672 2.00529785 9.03808594 3.03833008 C10.32672048 6.80904464 11.61677441 10.57927237 12.90722656 14.34936523 C13.4622928 15.97163153 14.0169897 17.59402425 14.57128906 19.21655273 C15.37464491 21.56789119 16.17928662 23.9187855 16.984375 26.26953125 C17.37514221 27.41302536 17.37514221 27.41302536 17.77380371 28.57962036 C19.53294441 33.70575971 21.38187204 38.79023818 23.34472656 43.8425293 C24 46 24 46 24 50 C21.69 50 19.38 50 17 50 C16.3299166 47.87607494 15.66403203 45.75082476 15 43.625 C14.62875 42.44164062 14.2575 41.25828125 13.875 40.0390625 C13 37 13 37 13 35 C6.73 35 0.46 35 -6 35 C-6 36.98 -6 38.96 -6 41 C-6.875 43.5546875 -6.875 43.5546875 -8 45.875 C-8.556875 47.04675781 -8.556875 47.04675781 -9.125 48.2421875 C-9.558125 49.11230469 -9.558125 49.11230469 -10 50 C-11.98 50 -13.96 50 -16 50 C-15.40953292 44.92476559 -14.28614293 40.29114895 -12.63671875 35.44921875 C-12.4034639 34.75037064 -12.17020905 34.05152252 -11.92988586 33.33149719 C-11.43763339 31.86074774 -10.94248554 30.39096447 -10.44458008 28.92211914 C-9.69382761 26.70617675 -8.95260885 24.48722513 -8.21289062 22.26757812 C-5.69443143 14.75077581 -3.08213994 7.30907471 0 0 Z " fill="#171717" transform="translate(235,133)"/>
<path d="M0 0 C23.13445378 0 23.13445378 0 31.4921875 7.20703125 C35.91137841 12.46197588 36.49792091 17.29461313 36.4375 23.875 C36.4674707 25.02162109 36.4674707 25.02162109 36.49804688 26.19140625 C36.4919884 33.32829167 34.2135715 38.44587903 29.5625 43.8125 C20.23262514 51.77702732 13.04946568 50 0 50 C0 33.5 0 17 0 0 Z M6 5 C6 18.2 6 31.4 6 45 C15.22571058 45.6878088 15.22571058 45.6878088 22 42.3125 C22.70125 41.81363281 23.4025 41.31476563 24.125 40.80078125 C27.47265233 37.58564016 28.88250457 35.13957936 29.36328125 30.4765625 C29.34652344 29.20554688 29.32976562 27.93453125 29.3125 26.625 C29.30669922 24.72621094 29.30669922 24.72621094 29.30078125 22.7890625 C28.91854276 17.97385035 28.25051989 13.66735985 25.3125 9.75 C18.69493147 4.7421103 14.67868035 5 6 5 Z " fill="#121212" transform="translate(326,133)"/>
<path d="M0 0 C9.57 0 19.14 0 29 0 C29 2.31 29 4.62 29 7 C21.74 7 14.48 7 7 7 C7 11.62 7 16.24 7 21 C13.27 21 19.54 21 26 21 C26 22.98 26 24.96 26 27 C19.73 27 13.46 27 7 27 C7 32.28 7 37.56 7 43 C14.59 43 22.18 43 30 43 C30 45.31 30 47.62 30 50 C20.1 50 10.2 50 0 50 C0 33.5 0 17 0 0 Z " fill="#212121" transform="translate(384,133)"/>
<path d="M0 0 C0.66 0 1.32 0 2 0 C2 3.63 2 7.26 2 11 C4.31 11 6.62 11 9 11 C13.64490525 19.35668221 13.64490525 19.35668221 13 24 C12.731875 24.66 12.46375 25.32 12.1875 26 C11.75693845 28.29102025 11.75693845 28.29102025 13.9375 30.8125 C16.88900575 33.4384243 16.88900575 33.4384243 20.75 32.5625 C21.42546875 32.42070313 22.1009375 32.27890625 22.796875 32.1328125 C26.93814843 31.88316126 30.43562043 34.07754528 34 36 C34 37.65 34 39.3 34 41 C37.63 41 41.26 41 45 41 C45 39.35 45 37.7 45 36 C48.18518182 32.81481818 51.69368476 32.07837891 56.125 31.8125 C59 32 59 32 61.0625 32.8125 C62.0215625 32.9053125 62.0215625 32.9053125 63 33 C63.804375 32.175 64.60875 31.35 65.4375 30.5 C66.283125 29.675 67.12875 28.85 68 28 C70.8125 28.1875 70.8125 28.1875 73 29 C72.46412899 32.95651429 70.65593209 34.68080322 67.75 37.3125 C66.98171875 38.03050781 66.2134375 38.74851563 65.421875 39.48828125 C63 41 63 41 60.37109375 40.765625 C59.58863281 40.51296875 58.80617188 40.2603125 58 40 C54.52562221 39.24989106 54.52562221 39.24989106 51 39 C51 41.31 51 43.62 51 46 C48.65147472 47.17426264 47.26225935 47.11508173 44.6484375 47.09765625 C43.37226563 47.09282227 43.37226563 47.09282227 42.0703125 47.08789062 C41.18085938 47.07951172 40.29140625 47.07113281 39.375 47.0625 C38.02921875 47.05573242 38.02921875 47.05573242 36.65625 47.04882812 C34.43743352 47.03702591 32.21874982 47.02056155 30 47 C29.01 43.535 29.01 43.535 28 40 C25.09926819 39.32198966 25.09926819 39.32198966 22 39 C21.34 39.66 20.68 40.32 20 41 C16.46554035 40.90398751 15.08953853 40.07732263 12.39453125 37.75 C11.54246094 36.8425 10.69039063 35.935 9.8125 35 C6.74012047 31.55497294 6.74012047 31.55497294 3 29 C3.75 24.25 3.75 24.25 6 22 C5.67673447 18.40320934 5.67673447 18.40320934 5 15 C3.02 15 1.04 15 -1 15 C-1.02685412 12.68756208 -1.04632841 10.3750373 -1.0625 8.0625 C-1.07410156 6.77472656 -1.08570313 5.48695312 -1.09765625 4.16015625 C-1 1 -1 1 0 0 Z " fill="#45286A" transform="translate(304,46)"/>
<path d="M0 0 C2.31 0 4.62 0 7 0 C10.47369436 9.14534576 13.3401897 18.37270844 15.94384766 27.80151367 C16.3022876 29.09279175 16.3022876 29.09279175 16.66796875 30.41015625 C16.87703857 31.17465088 17.0861084 31.93914551 17.30151367 32.72680664 C18.06612281 35.21519381 19.0041321 37.59586086 20 40 C21.12532262 36.14592746 22.25020008 32.29172512 23.375 28.4375 C23.69210937 27.35146484 24.00921875 26.26542969 24.3359375 25.14648438 C26.24931394 18.5942889 26.24931394 18.5942889 28.125 12.03125 C28.89896688 9.35000758 29.73044633 6.70549948 30.625 4.0625 C30.88539063 3.29035156 31.14578125 2.51820313 31.4140625 1.72265625 C31.70410156 0.86994141 31.70410156 0.86994141 32 0 C34.31 0 36.62 0 39 0 C37.6779119 6.31945459 36.04052712 12.41915632 34.0625 18.5625 C33.81048828 19.36107422 33.55847656 20.15964844 33.29882812 20.98242188 C31.88701058 25.41285699 30.35249287 29.77004242 28.6940918 34.11352539 C27.21857547 38.12383655 26.08023905 42.24461932 24.8671875 46.33984375 C24 49 24 49 23 50 C20.66702567 50.04092937 18.33294775 50.04241723 16 50 C15.65743164 48.96705811 15.31486328 47.93411621 14.96191406 46.86987305 C13.67378112 42.98718563 12.38356979 39.10519137 11.09277344 35.22338867 C10.53753083 33.55267461 9.9828299 31.88178043 9.42871094 30.21069336 C8.62582235 27.78970891 7.82127447 25.36928578 7.015625 22.94921875 C6.75511353 22.16610321 6.49460205 21.38298767 6.22619629 20.57614136 C4.47958109 15.35488999 2.63430502 10.18073006 0.65527344 5.04223633 C0 3 0 3 0 0 Z " fill="#212121" transform="translate(429,133)"/>
<path d="M0 0 C12.21 0 24.42 0 37 0 C37 2.31 37 4.62 37 7 C32.05 7 27.1 7 22 7 C22 21.19 22 35.38 22 50 C19.69 50 17.38 50 15 50 C15 35.48 15 20.96 15 6 C10.05 6 5.1 6 0 6 C0 4.02 0 2.04 0 0 Z " fill="#202020" transform="translate(269,133)"/>
<path d="M0 0 C1.010625 0.06703125 2.02125 0.1340625 3.0625 0.203125 C6.35696803 0.81645681 8.3845944 1.65382933 11 3.75 C11 5.07 11 6.39 11 7.75 C10.0925 7.585 9.185 7.42 8.25 7.25 C-1.25186441 5.71838267 -1.25186441 5.71838267 -10.2578125 7.984375 C-13.56398653 10.77871456 -16.6909843 13.73651876 -17.37109375 18.16796875 C-17.51240993 24.06168481 -17.07412605 28.31289152 -13.55078125 33.15625 C-10.02877801 36.77584023 -6.26165046 37.64123703 -1.375 38.0625 C1.86160139 37.76281469 4.02669247 36.95539494 7 35.75 C9.3125 36.125 9.3125 36.125 11 36.75 C11 38.4 11 40.05 11 41.75 C6.91975282 43.6859963 3.56146694 44.04784538 -0.9375 44.0625 C-2.12214844 44.07925781 -3.30679687 44.09601563 -4.52734375 44.11328125 C-10.88980195 43.44769226 -14.89235315 40.50622267 -19 35.75 C-23.1159135 29.47944722 -24.82472636 24.19679387 -24 16.75 C-22.06804095 9.77928289 -16.87477035 4.72265246 -11 0.75 C-7.26186607 -0.39506858 -3.87738835 -0.2967389 0 0 Z " fill="#482B6C" transform="translate(345,29.25)"/>
<path d="M0 0 C0.66 0 1.32 0 2 0 C3.00906461 3.24725579 4.00565122 6.49821074 5 9.75 C5.28617188 10.67039063 5.57234375 11.59078125 5.8671875 12.5390625 C6.13789063 13.42851562 6.40859375 14.31796875 6.6875 15.234375 C6.93886719 16.05131836 7.19023437 16.86826172 7.44921875 17.70996094 C8 20 8 20 8 24 C6.92878906 24.06058594 5.85757813 24.12117188 4.75390625 24.18359375 C3.35675609 24.26798537 1.95962143 24.35263406 0.5625 24.4375 C-0.14455078 24.47681641 -0.85160156 24.51613281 -1.58007812 24.55664062 C-5.08690419 24.47624438 -5.08690419 24.47624438 -8 26 C-2.06 26.33 3.88 26.66 10 27 C10 27.33 10 27.66 10 28 C3.73 28 -2.54 28 -9 28 C-9 29.98 -9 31.96 -9 34 C-9.875 36.5546875 -9.875 36.5546875 -11 38.875 C-11.556875 40.04675781 -11.556875 40.04675781 -12.125 41.2421875 C-12.558125 42.11230469 -12.558125 42.11230469 -13 43 C-14.98 43 -16.96 43 -19 43 C-18.40271901 37.83152847 -17.23087825 33.10257802 -15.56640625 28.16796875 C-15.32840805 27.45014725 -15.09040985 26.73232574 -14.84519958 25.99275208 C-14.34465244 24.48840624 -13.84111549 22.98505218 -13.3347168 21.48266602 C-12.55980921 19.17950248 -11.79790664 16.87231095 -11.03710938 14.56445312 C-10.54764501 13.09870098 -10.05743695 11.63319692 -9.56640625 10.16796875 C-9.3392543 9.47841599 -9.11210236 8.78886322 -8.87806702 8.07841492 C-7.88699237 5.16281669 -7.20759482 3.20759482 -5 1 C-5.67415387 6.2584002 -7.24265549 11.02638346 -9 16 C-7.68 15.67 -6.36 15.34 -5 15 C-4.72285156 14.00097656 -4.44570312 13.00195312 -4.16015625 11.97265625 C-3.79444451 10.66922209 -3.42854962 9.36583931 -3.0625 8.0625 C-2.88009766 7.40314453 -2.69769531 6.74378906 -2.50976562 6.06445312 C-1.11328125 1.11328125 -1.11328125 1.11328125 0 0 Z " fill="#3C3C3C" transform="translate(238,140)"/>
<path d="M0 0 C1.35444466 0.01273453 1.35444466 0.01273453 2.73625183 0.02572632 C5.61055567 0.05922205 8.48201808 0.13449164 11.35546875 0.2109375 C13.30790209 0.24104217 15.26037956 0.2684171 17.21289062 0.29296875 C21.99067239 0.35900063 26.76633944 0.46249403 31.54296875 0.5859375 C27.90951949 6.22640395 27.90951949 6.22640395 24.50448608 7.12225342 C22.01250525 7.27967101 19.58139347 7.26059707 17.0859375 7.171875 C15.73149284 7.15914047 15.73149284 7.15914047 14.34968567 7.14614868 C11.47538183 7.11265295 8.60391942 7.03738336 5.73046875 6.9609375 C3.77803541 6.93083283 1.82555794 6.9034579 -0.12695312 6.87890625 C-4.90473489 6.81287437 -9.68040194 6.70938097 -14.45703125 6.5859375 C-10.35296427 0.21489709 -7.34989247 -0.26131402 0 0 Z " fill="#060606" transform="translate(592.45703125,254.4140625)"/>
<path d="M0 0 C1.27423828 -0.00193359 1.27423828 -0.00193359 2.57421875 -0.00390625 C3.91419922 0.00189453 3.91419922 0.00189453 5.28125 0.0078125 C6.17457031 0.00394531 7.06789063 0.00007812 7.98828125 -0.00390625 C8.83777344 -0.00261719 9.68726563 -0.00132813 10.5625 0 C11.34689453 0.00112793 12.13128906 0.00225586 12.93945312 0.00341797 C14.78125 0.1328125 14.78125 0.1328125 15.78125 1.1328125 C16.14885731 3.46099214 16.48366581 5.794651 16.78125 8.1328125 C19.12658951 8.90237386 19.12658951 8.90237386 21.78125 9.1328125 C22.27625 8.6378125 22.77125 8.1428125 23.28125 7.6328125 C23.77625 7.1378125 24.27125 6.6428125 24.78125 6.1328125 C29.36332166 6.39821358 31.46142473 8.29756869 34.59375 11.5078125 C35.38394531 12.29929687 36.17414063 13.09078125 36.98828125 13.90625 C38.78125 16.1328125 38.78125 16.1328125 38.78125 19.1328125 C37.015625 19.81640625 37.015625 19.81640625 34.78125 20.1328125 C32.859375 18.91796875 32.859375 18.91796875 31.03125 17.1953125 C30.41765625 16.62941406 29.8040625 16.06351563 29.171875 15.48046875 C28.48351562 14.81337891 28.48351562 14.81337891 27.78125 14.1328125 C27.19085938 14.46667969 26.60046875 14.80054688 25.9921875 15.14453125 C22.6538045 16.63677665 20.2974069 15.92091663 16.78125 15.1328125 C13.34375 13.5703125 13.34375 13.5703125 10.78125 12.1328125 C10.78125 10.1528125 10.78125 8.1728125 10.78125 6.1328125 C12.10125 6.1328125 13.42125 6.1328125 14.78125 6.1328125 C14.78125 4.8128125 14.78125 3.4928125 14.78125 2.1328125 C8.51125 2.1328125 2.24125 2.1328125 -4.21875 2.1328125 C-4.54875 4.4428125 -4.87875 6.7528125 -5.21875 9.1328125 C-5.87875 8.8028125 -6.53875 8.4728125 -7.21875 8.1328125 C-5.00267213 0.00719365 -5.00267213 0.00719365 0 0 Z " fill="#492C6D" transform="translate(338.21875,8.8671875)"/>
<path d="M0 0 C2.8125 0.1875 2.8125 0.1875 5 1 C4.46412899 4.95651429 2.65593209 6.68080322 -0.25 9.3125 C-1.01828125 10.03050781 -1.7865625 10.74851562 -2.578125 11.48828125 C-5 13 -5 13 -7.62890625 12.765625 C-8.41136719 12.51296875 -9.19382812 12.2603125 -10 12 C-13.47437779 11.24989106 -13.47437779 11.24989106 -17 11 C-17 13.31 -17 15.62 -17 18 C-19 14.25 -19 14.25 -19 12 C-20.32 12.33 -21.64 12.66 -23 13 C-23.125 10.625 -23.125 10.625 -23 8 C-19.81481818 4.81481818 -16.30631524 4.07837891 -11.875 3.8125 C-9 4 -9 4 -6.9375 4.8125 C-5.9784375 4.9053125 -5.9784375 4.9053125 -5 5 C-4.195625 4.175 -3.39125 3.35 -2.5625 2.5 C-1.716875 1.675 -0.87125 0.85 0 0 Z " fill="#452969" transform="translate(372,74)"/>
<path d="M0 0 C0.66 0 1.32 0 2 0 C4.24936659 7.61785486 5.79903956 15.14756638 7 23 C2.71 23 -1.58 23 -6 23 C-4.52173913 4.52173913 -4.52173913 4.52173913 0 0 Z " fill="#EAEAEA" transform="translate(238,140)"/>
<path d="M0 0 C3.04790523 3.04790523 2.36846981 6.54363005 2.375 10.625 C2.39949219 11.40746094 2.42398437 12.18992188 2.44921875 12.99609375 C2.48548176 20.28495842 0.25000286 25.34615047 -4.4375 30.875 C-6.92619739 32.93879783 -8.93428564 34.03648977 -12 35 C-12 33.68 -12 32.36 -12 31 C-13.32 30.67 -14.64 30.34 -16 30 C-14.27473958 29.12109375 -12.54947917 28.2421875 -10.82421875 27.36328125 C-8.25277558 25.44158175 -7.28435155 23.97593651 -6 21 C-5.64979636 17.71835354 -5.71666323 14.48281038 -5.8125 11.1875 C-5.82603516 10.30384766 -5.83957031 9.42019531 -5.85351562 8.50976562 C-5.88870783 6.33957977 -5.94251015 4.16970967 -6 2 C-4 4 -4 4 -3.8046875 7.4765625 C-3.81798507 8.85950968 -3.84183768 10.24238654 -3.875 11.625 C-3.88402344 12.33140625 -3.89304687 13.0378125 -3.90234375 13.765625 C-3.92592397 15.51056098 -3.96179539 17.25532295 -4 19 C-2.35 18.67 -0.7 18.34 1 18 C0.67 12.06 0.34 6.12 0 0 Z " fill="#313131" transform="translate(360,146)"/>
<path d="M0 0 C6.27 0 12.54 0 19 0 C19 1.32 19 2.64 19 4 C14.05 4 9.1 4 4 4 C4 5.65 4 7.3 4 9 C0.94098408 12.42609783 -2.59032988 12.57599326 -7 13 C-6.67 11.02 -6.34 9.04 -6 7 C-4.35 7 -2.7 7 -1 7 C-0.67 4.69 -0.34 2.38 0 0 Z " fill="#402465" transform="translate(334,11)"/>
<path d="M0 0 C3.75 0.25 3.75 0.25 7 1 C6.8125 3.375 6.8125 3.375 6 6 C3.6875 7.0625 3.6875 7.0625 1 8 C0.401875 8.70125 -0.19625 9.4025 -0.8125 10.125 C-4.12840007 12.96720006 -6.72665713 12.28488952 -11 12 C-11.33 10.35 -11.66 8.7 -12 7 C-10.7625 6.5875 -9.525 6.175 -8.25 5.75 C-5.31255739 4.67996837 -4.09959786 4.10865221 -1.9375 1.75 C-1.298125 1.1725 -0.65875 0.595 0 0 Z " fill="#4D3270" transform="translate(367,34)"/>
<path d="M0 0 C9.24214838 -0.63495676 9.24214838 -0.63495676 12.3125 1.9375 C13.1478125 2.9584375 13.1478125 2.9584375 14 4 C16.64184541 4.79681318 16.64184541 4.79681318 19 5 C19 6.98 19 8.96 19 11 C15.8125 11.3125 15.8125 11.3125 12 11 C10.31237149 9.3545622 8.6459651 7.68711423 7 6 C3.31558496 5.11472891 3.31558496 5.11472891 0 5 C0 3.35 0 1.7 0 0 Z " fill="#4D3170" transform="translate(355,57)"/>
<path d="M0 0 C2.62431483 1.31215742 4.2062114 2.67471849 6 5 C5.75 7.25 5.75 7.25 5 9 C5.66 9.33 6.32 9.66 7 10 C6.2575 9.835 5.515 9.67 4.75 9.5 C1.80993422 8.88074304 1.80993422 8.88074304 -2 9 C-4.52554956 11.15414521 -6.15172888 13.22759333 -8 16 C-8.66 14.68 -9.32 13.36 -10 12 C-9.34 11.236875 -8.68 10.47375 -8 9.6875 C-5.70149462 7.15722061 -5.70149462 7.15722061 -6 4 C-2.88888889 0 -2.88888889 0 0 0 Z " fill="#4A306E" transform="translate(322,15)"/>
<path d="M0 0 C6.27 0 12.54 0 19 0 C18.67 1.65 18.34 3.3 18 5 C12.39 5 6.78 5 1 5 C0.67 3.35 0.34 1.7 0 0 Z " fill="#3E2165" transform="translate(352,49)"/>
<path d="M0 0 C0.38133299 1.9914056 0.71325582 3.99279077 1 6 C0 7 0 7 -2.765625 7.1328125 C-4.49039062 7.12894531 -4.49039062 7.12894531 -6.25 7.125 C-7.95929688 7.12886719 -7.95929688 7.12886719 -9.703125 7.1328125 C-12.60044376 7.01609587 -15.18608964 6.66645245 -18 6 C-16.84765625 4.04296875 -16.84765625 4.04296875 -15 2 C-12.37109375 1.42578125 -12.37109375 1.42578125 -9.4375 1.3125 C-6.11226311 1.15794052 -3.14308314 0 0 0 Z " fill="#3C1F62" transform="translate(353,86)"/>
<path d="M0 0 C1.27423828 -0.00193359 1.27423828 -0.00193359 2.57421875 -0.00390625 C3.91419922 0.00189453 3.91419922 0.00189453 5.28125 0.0078125 C6.17457031 0.00394531 7.06789063 0.00007812 7.98828125 -0.00390625 C8.83777344 -0.00261719 9.68726563 -0.00132813 10.5625 0 C11.34689453 0.00112793 12.13128906 0.00225586 12.93945312 0.00341797 C14.78125 0.1328125 14.78125 0.1328125 15.78125 1.1328125 C17.08014299 8.33576453 17.08014299 8.33576453 15.84375 11.6328125 C15.493125 12.1278125 15.1425 12.6228125 14.78125 13.1328125 C13.46125 12.8028125 12.14125 12.4728125 10.78125 12.1328125 C10.78125 10.1528125 10.78125 8.1728125 10.78125 6.1328125 C12.10125 6.1328125 13.42125 6.1328125 14.78125 6.1328125 C14.78125 4.8128125 14.78125 3.4928125 14.78125 2.1328125 C8.51125 2.1328125 2.24125 2.1328125 -4.21875 2.1328125 C-4.54875 4.4428125 -4.87875 6.7528125 -5.21875 9.1328125 C-5.87875 8.8028125 -6.53875 8.4728125 -7.21875 8.1328125 C-5.00267213 0.00719365 -5.00267213 0.00719365 0 0 Z " fill="#644D82" transform="translate(338.21875,8.8671875)"/>
<path d="M0 0 C0.33 0.66 0.66 1.32 1 2 C-0.98 2.99 -0.98 2.99 -3 4 C-2.67 4.66 -2.34 5.32 -2 6 C-3.98 6.33 -5.96 6.66 -8 7 C-8 9.31 -8 11.62 -8 14 C-10 10.25 -10 10.25 -10 8 C-11.32 8.33 -12.64 8.66 -14 9 C-14.125 6.625 -14.125 6.625 -14 4 C-10.07627117 0.07627117 -5.34401044 -0.25447669 0 0 Z " fill="#523874" transform="translate(363,78)"/>
<path d="M0 0 C3.3 0 6.6 0 10 0 C10.33 1.32 10.66 2.64 11 4 C10 5 10 5 7.93359375 5.09765625 C7.10988281 5.08605469 6.28617187 5.07445312 5.4375 5.0625 C4.61121094 5.05347656 3.78492188 5.04445313 2.93359375 5.03515625 C2.29550781 5.02355469 1.65742188 5.01195312 1 5 C0.67 3.35 0.34 1.7 0 0 Z " fill="#432669" transform="translate(374,49)"/>
<path d="M0 0 C3.0390625 -0.29296875 3.0390625 -0.29296875 6.625 -0.1875 C7.81351562 -0.16042969 9.00203125 -0.13335937 10.2265625 -0.10546875 C11.14179688 -0.07066406 12.05703125 -0.03585937 13 0 C13 1.32 13 2.64 13 4 C8.05 3.67 3.1 3.34 -2 3 C-1.34 2.01 -0.68 1.02 0 0 Z " fill="#35185C" transform="translate(340,11)"/>
<path d="M0 0 C0.99 0.33 1.98 0.66 3 1 C2.65066406 1.44730469 2.30132812 1.89460938 1.94140625 2.35546875 C-0.68898628 5.85023956 -2.59207142 8.51278557 -3 13 C-4.32 12.34 -5.64 11.68 -7 11 C-6.68232368 5.59950264 -3.80003673 3.47662935 0 0 Z " fill="#583E79" transform="translate(314,21)"/>
<path d="M0 0 C2.31 0 4.62 0 7 0 C7.5625 1.9375 7.5625 1.9375 8 4 C7 5 7 5 3.9375 5.0625 C2.968125 5.041875 1.99875 5.02125 1 5 C0.67 3.35 0.34 1.7 0 0 Z " fill="#472A6B" transform="translate(377,63)"/>
<path d="M0 0 C2.31 0 4.62 0 7 0 C7.5625 1.9375 7.5625 1.9375 8 4 C7 5 7 5 3.9375 5.0625 C2.968125 5.041875 1.99875 5.02125 1 5 C0.67 3.35 0.34 1.7 0 0 Z " fill="#482B6C" transform="translate(377,35)"/>
<path d="M0 0 C0.33 0 0.66 0 1 0 C1.36995516 4.56278027 1.36995516 4.56278027 -0.375 6.625 C-0.91125 7.07875 -1.4475 7.5325 -2 8 C-2.99 9.485 -2.99 9.485 -4 11 C-4.66 9.68 -5.32 8.36 -6 7 C-5.02433888 5.83040013 -4.044375 4.66438823 -3.0625 3.5 C-2.51722656 2.8503125 -1.97195313 2.200625 -1.41015625 1.53125 C-0.71212891 0.77328125 -0.71212891 0.77328125 0 0 Z " fill="#432767" transform="translate(318,20)"/>
<path d="M0 0 C2.97 0.495 2.97 0.495 6 1 C6 1.99 6 2.98 6 4 C3.03 4 0.06 4 -3 4 C-2.01 2.68 -1.02 1.36 0 0 Z " fill="#020202" transform="translate(330,178)"/>
<path d="M0 0 C1.9453125 -0.29296875 1.9453125 -0.29296875 4.125 -0.1875 C5.40375 -0.125625 6.6825 -0.06375 8 0 C7.01 1.485 7.01 1.485 6 3 C4.0546875 3.29296875 4.0546875 3.29296875 1.875 3.1875 C0.59625 3.125625 -0.6825 3.06375 -2 3 C-1.34 2.01 -0.68 1.02 0 0 Z " fill="#090909" transform="translate(231,164)"/>
<path d="M0 0 C1.04449911 3.13349732 0.93423645 3.98968256 0 7 C-1.65 7 -3.3 7 -5 7 C-3.70700306 4.11562221 -2.34058637 2.12780579 0 0 Z " fill="#060606" transform="translate(225,175)"/>
<path d="M0 0 C2.625 -0.1875 2.625 -0.1875 5 0 C5.33 0.99 5.66 1.98 6 3 C3.36 3 0.72 3 -2 3 C-1.34 2.01 -0.68 1.02 0 0 Z " fill="#010101" transform="translate(463,258)"/>
</svg>
